<mxfile host="app.diagrams.net" modified="2024-02-28T17:33:29.840Z" agent="Mozilla/5.0 (Windows NT 10.0; Win64; x64) AppleWebKit/537.36 (KHTML, like Gecko) Chrome/122.0.0.0 Safari/537.36" etag="GBjPpLo4xwHD-4--diA8" version="23.1.5" type="github">
  <diagram name="Page-1" id="EXxe8UojaJTnIZeWpY3b">
    <mxGraphModel dx="794" dy="412" grid="1" gridSize="10" guides="1" tooltips="1" connect="1" arrows="1" fold="1" page="1" pageScale="1" pageWidth="850" pageHeight="1100" math="0" shadow="0">
      <root>
        <mxCell id="0" />
        <mxCell id="1" parent="0" />
        <mxCell id="yMxW7oEQjTT6U8lhfY3i-21" value="Track Order" style="edgeStyle=orthogonalEdgeStyle;rounded=0;orthogonalLoop=1;jettySize=auto;html=1;exitX=0.5;exitY=1;exitDx=0;exitDy=0;entryX=0.5;entryY=1;entryDx=0;entryDy=0;" edge="1" parent="1" source="yMxW7oEQjTT6U8lhfY3i-2" target="yMxW7oEQjTT6U8lhfY3i-3">
          <mxGeometry relative="1" as="geometry" />
        </mxCell>
        <mxCell id="yMxW7oEQjTT6U8lhfY3i-2" value="User" style="rounded=0;whiteSpace=wrap;html=1;" vertex="1" parent="1">
          <mxGeometry x="80" y="140" width="120" height="60" as="geometry" />
        </mxCell>
        <mxCell id="yMxW7oEQjTT6U8lhfY3i-3" value="Food Ordering system" style="ellipse;whiteSpace=wrap;html=1;" vertex="1" parent="1">
          <mxGeometry x="360" y="130" width="120" height="80" as="geometry" />
        </mxCell>
        <mxCell id="yMxW7oEQjTT6U8lhfY3i-5" value="logins the app" style="endArrow=classic;html=1;rounded=0;exitX=1;exitY=0.5;exitDx=0;exitDy=0;" edge="1" parent="1" source="yMxW7oEQjTT6U8lhfY3i-2" target="yMxW7oEQjTT6U8lhfY3i-3">
          <mxGeometry width="50" height="50" relative="1" as="geometry">
            <mxPoint x="190" y="140" as="sourcePoint" />
            <mxPoint x="240" y="90" as="targetPoint" />
          </mxGeometry>
        </mxCell>
        <mxCell id="yMxW7oEQjTT6U8lhfY3i-6" value="Add food to cart" style="endArrow=classic;html=1;rounded=0;entryX=0.194;entryY=0.075;entryDx=0;entryDy=0;entryPerimeter=0;" edge="1" parent="1" target="yMxW7oEQjTT6U8lhfY3i-3">
          <mxGeometry width="50" height="50" relative="1" as="geometry">
            <mxPoint x="180" y="140" as="sourcePoint" />
            <mxPoint x="230" y="90" as="targetPoint" />
          </mxGeometry>
        </mxCell>
        <mxCell id="yMxW7oEQjTT6U8lhfY3i-8" value="Place order" style="endArrow=classic;html=1;rounded=0;exitX=1;exitY=1;exitDx=0;exitDy=0;entryX=0.094;entryY=0.8;entryDx=0;entryDy=0;entryPerimeter=0;" edge="1" parent="1" source="yMxW7oEQjTT6U8lhfY3i-2" target="yMxW7oEQjTT6U8lhfY3i-3">
          <mxGeometry width="50" height="50" relative="1" as="geometry">
            <mxPoint x="380" y="240" as="sourcePoint" />
            <mxPoint x="430" y="190" as="targetPoint" />
            <Array as="points">
              <mxPoint x="200" y="194" />
            </Array>
          </mxGeometry>
        </mxCell>
        <mxCell id="yMxW7oEQjTT6U8lhfY3i-15" value="View Menu" style="edgeStyle=orthogonalEdgeStyle;rounded=0;orthogonalLoop=1;jettySize=auto;html=1;exitX=0.5;exitY=0;exitDx=0;exitDy=0;entryX=0.606;entryY=-0.008;entryDx=0;entryDy=0;entryPerimeter=0;" edge="1" parent="1" source="yMxW7oEQjTT6U8lhfY3i-2" target="yMxW7oEQjTT6U8lhfY3i-3">
          <mxGeometry relative="1" as="geometry" />
        </mxCell>
        <mxCell id="yMxW7oEQjTT6U8lhfY3i-44" value="Managing orders" style="edgeStyle=orthogonalEdgeStyle;rounded=0;orthogonalLoop=1;jettySize=auto;html=1;exitX=0;exitY=0.5;exitDx=0;exitDy=0;entryX=1;entryY=0.5;entryDx=0;entryDy=0;" edge="1" parent="1" source="yMxW7oEQjTT6U8lhfY3i-43" target="yMxW7oEQjTT6U8lhfY3i-3">
          <mxGeometry relative="1" as="geometry" />
        </mxCell>
        <mxCell id="yMxW7oEQjTT6U8lhfY3i-45" value="Updating menu" style="edgeStyle=orthogonalEdgeStyle;rounded=0;orthogonalLoop=1;jettySize=auto;html=1;exitX=0.5;exitY=0;exitDx=0;exitDy=0;entryX=1;entryY=0;entryDx=0;entryDy=0;" edge="1" parent="1" source="yMxW7oEQjTT6U8lhfY3i-43" target="yMxW7oEQjTT6U8lhfY3i-3">
          <mxGeometry relative="1" as="geometry" />
        </mxCell>
        <mxCell id="yMxW7oEQjTT6U8lhfY3i-46" value="Monitoring Operations&lt;div&gt;&lt;br/&gt;&lt;/div&gt;" style="edgeStyle=orthogonalEdgeStyle;rounded=0;orthogonalLoop=1;jettySize=auto;html=1;exitX=0.5;exitY=1;exitDx=0;exitDy=0;entryX=1;entryY=1;entryDx=0;entryDy=0;" edge="1" parent="1" source="yMxW7oEQjTT6U8lhfY3i-43" target="yMxW7oEQjTT6U8lhfY3i-3">
          <mxGeometry relative="1" as="geometry" />
        </mxCell>
        <mxCell id="yMxW7oEQjTT6U8lhfY3i-43" value="Admin" style="whiteSpace=wrap;html=1;aspect=fixed;" vertex="1" parent="1">
          <mxGeometry x="630" y="125" width="80" height="80" as="geometry" />
        </mxCell>
      </root>
    </mxGraphModel>
  </diagram>
</mxfile>
